<svg xmlns="http://www.w3.org/2000/svg" viewBox="0 0 715.23 364.5"><title>mdda_marca</title><path d="M357.26,52.07A130.18,130.18,0,1,0,487.44,182.25,130.18,130.18,0,0,0,357.26,52.07Zm0,208.29a78.11,78.11,0,1,1,78.11-78.11A78.11,78.11,0,0,1,357.26,260.36Z" transform="translate(0.28)" style="fill:#09c"/><polygon points="715.08 156.22 506.79 52.07 506.79 104.14 663.01 182.25 506.79 260.36 506.79 312.43 715.08 208.29 715.08 156.22" style="fill:#09c"/><polygon points="0 156.22 208.29 52.07 208.29 104.14 52.07 182.25 208.29 260.36 208.29 312.43 0 208.29 0 156.22" style="fill:#09c"/><polygon points="474.84 0 422.76 0 240.51 364.5 292.58 364.5 474.84 0" style="fill:#0cf"/><polygon points="715.23 208.42 507.23 104.42 507.23 52.42 715.23 156.42 715.23 208.42" style="fill:#0cf"/><polygon points="208.23 312.42 0.23 208.42 0.23 156.42 208.23 260.42 208.23 312.42" style="fill:#0cf"/></svg>